G04 #@! TF.GenerationSoftware,KiCad,Pcbnew,(5.1.5)-3*
G04 #@! TF.CreationDate,2020-05-23T18:29:00+09:00*
G04 #@! TF.ProjectId,TLV61220_Breakout,544c5636-3132-4323-905f-427265616b6f,rev?*
G04 #@! TF.SameCoordinates,Original*
G04 #@! TF.FileFunction,Soldermask,Top*
G04 #@! TF.FilePolarity,Negative*
%FSLAX46Y46*%
G04 Gerber Fmt 4.6, Leading zero omitted, Abs format (unit mm)*
G04 Created by KiCad (PCBNEW (5.1.5)-3) date 2020-05-23 18:29:00*
%MOMM*%
%LPD*%
G04 APERTURE LIST*
%ADD10C,0.100000*%
G04 APERTURE END LIST*
D10*
G36*
X139313228Y-107131703D02*
G01*
X139468100Y-107195853D01*
X139607481Y-107288985D01*
X139726015Y-107407519D01*
X139819147Y-107546900D01*
X139883297Y-107701772D01*
X139916000Y-107866184D01*
X139916000Y-108033816D01*
X139883297Y-108198228D01*
X139819147Y-108353100D01*
X139726015Y-108492481D01*
X139607481Y-108611015D01*
X139468100Y-108704147D01*
X139313228Y-108768297D01*
X139148816Y-108801000D01*
X138981184Y-108801000D01*
X138816772Y-108768297D01*
X138661900Y-108704147D01*
X138522519Y-108611015D01*
X138403985Y-108492481D01*
X138310853Y-108353100D01*
X138246703Y-108198228D01*
X138214000Y-108033816D01*
X138214000Y-107866184D01*
X138246703Y-107701772D01*
X138310853Y-107546900D01*
X138403985Y-107407519D01*
X138522519Y-107288985D01*
X138661900Y-107195853D01*
X138816772Y-107131703D01*
X138981184Y-107099000D01*
X139148816Y-107099000D01*
X139313228Y-107131703D01*
G37*
G36*
X136773228Y-107131703D02*
G01*
X136928100Y-107195853D01*
X137067481Y-107288985D01*
X137186015Y-107407519D01*
X137279147Y-107546900D01*
X137343297Y-107701772D01*
X137376000Y-107866184D01*
X137376000Y-108033816D01*
X137343297Y-108198228D01*
X137279147Y-108353100D01*
X137186015Y-108492481D01*
X137067481Y-108611015D01*
X136928100Y-108704147D01*
X136773228Y-108768297D01*
X136608816Y-108801000D01*
X136441184Y-108801000D01*
X136276772Y-108768297D01*
X136121900Y-108704147D01*
X135982519Y-108611015D01*
X135863985Y-108492481D01*
X135770853Y-108353100D01*
X135706703Y-108198228D01*
X135674000Y-108033816D01*
X135674000Y-107866184D01*
X135706703Y-107701772D01*
X135770853Y-107546900D01*
X135863985Y-107407519D01*
X135982519Y-107288985D01*
X136121900Y-107195853D01*
X136276772Y-107131703D01*
X136441184Y-107099000D01*
X136608816Y-107099000D01*
X136773228Y-107131703D01*
G37*
G36*
X141853228Y-107131703D02*
G01*
X142008100Y-107195853D01*
X142147481Y-107288985D01*
X142266015Y-107407519D01*
X142359147Y-107546900D01*
X142423297Y-107701772D01*
X142456000Y-107866184D01*
X142456000Y-108033816D01*
X142423297Y-108198228D01*
X142359147Y-108353100D01*
X142266015Y-108492481D01*
X142147481Y-108611015D01*
X142008100Y-108704147D01*
X141853228Y-108768297D01*
X141688816Y-108801000D01*
X141521184Y-108801000D01*
X141356772Y-108768297D01*
X141201900Y-108704147D01*
X141062519Y-108611015D01*
X140943985Y-108492481D01*
X140850853Y-108353100D01*
X140786703Y-108198228D01*
X140754000Y-108033816D01*
X140754000Y-107866184D01*
X140786703Y-107701772D01*
X140850853Y-107546900D01*
X140943985Y-107407519D01*
X141062519Y-107288985D01*
X141201900Y-107195853D01*
X141356772Y-107131703D01*
X141521184Y-107099000D01*
X141688816Y-107099000D01*
X141853228Y-107131703D01*
G37*
G36*
X136151604Y-103403347D02*
G01*
X136188144Y-103414432D01*
X136221821Y-103432433D01*
X136251341Y-103456659D01*
X136275567Y-103486179D01*
X136293568Y-103519856D01*
X136304653Y-103556396D01*
X136309000Y-103600538D01*
X136309000Y-105949462D01*
X136304653Y-105993604D01*
X136293568Y-106030144D01*
X136275567Y-106063821D01*
X136251341Y-106093341D01*
X136221821Y-106117567D01*
X136188144Y-106135568D01*
X136151604Y-106146653D01*
X136107462Y-106151000D01*
X135158538Y-106151000D01*
X135114396Y-106146653D01*
X135077856Y-106135568D01*
X135044179Y-106117567D01*
X135014659Y-106093341D01*
X134990433Y-106063821D01*
X134972432Y-106030144D01*
X134961347Y-105993604D01*
X134957000Y-105949462D01*
X134957000Y-103600538D01*
X134961347Y-103556396D01*
X134972432Y-103519856D01*
X134990433Y-103486179D01*
X135014659Y-103456659D01*
X135044179Y-103432433D01*
X135077856Y-103414432D01*
X135114396Y-103403347D01*
X135158538Y-103399000D01*
X136107462Y-103399000D01*
X136151604Y-103403347D01*
G37*
G36*
X138951604Y-103403347D02*
G01*
X138988144Y-103414432D01*
X139021821Y-103432433D01*
X139051341Y-103456659D01*
X139075567Y-103486179D01*
X139093568Y-103519856D01*
X139104653Y-103556396D01*
X139109000Y-103600538D01*
X139109000Y-105949462D01*
X139104653Y-105993604D01*
X139093568Y-106030144D01*
X139075567Y-106063821D01*
X139051341Y-106093341D01*
X139021821Y-106117567D01*
X138988144Y-106135568D01*
X138951604Y-106146653D01*
X138907462Y-106151000D01*
X137958538Y-106151000D01*
X137914396Y-106146653D01*
X137877856Y-106135568D01*
X137844179Y-106117567D01*
X137814659Y-106093341D01*
X137790433Y-106063821D01*
X137772432Y-106030144D01*
X137761347Y-105993604D01*
X137757000Y-105949462D01*
X137757000Y-103600538D01*
X137761347Y-103556396D01*
X137772432Y-103519856D01*
X137790433Y-103486179D01*
X137814659Y-103456659D01*
X137844179Y-103432433D01*
X137877856Y-103414432D01*
X137914396Y-103403347D01*
X137958538Y-103399000D01*
X138907462Y-103399000D01*
X138951604Y-103403347D01*
G37*
G36*
X142985499Y-102284445D02*
G01*
X143022995Y-102295820D01*
X143057554Y-102314292D01*
X143087847Y-102339153D01*
X143112708Y-102369446D01*
X143131180Y-102404005D01*
X143142555Y-102441501D01*
X143147000Y-102486638D01*
X143147000Y-103225362D01*
X143142555Y-103270499D01*
X143131180Y-103307995D01*
X143112708Y-103342554D01*
X143087847Y-103372847D01*
X143057554Y-103397708D01*
X143022995Y-103416180D01*
X142985499Y-103427555D01*
X142940362Y-103432000D01*
X142301638Y-103432000D01*
X142256501Y-103427555D01*
X142219005Y-103416180D01*
X142184446Y-103397708D01*
X142154153Y-103372847D01*
X142129292Y-103342554D01*
X142110820Y-103307995D01*
X142099445Y-103270499D01*
X142095000Y-103225362D01*
X142095000Y-102486638D01*
X142099445Y-102441501D01*
X142110820Y-102404005D01*
X142129292Y-102369446D01*
X142154153Y-102339153D01*
X142184446Y-102314292D01*
X142219005Y-102295820D01*
X142256501Y-102284445D01*
X142301638Y-102280000D01*
X142940362Y-102280000D01*
X142985499Y-102284445D01*
G37*
G36*
X140899000Y-102892000D02*
G01*
X138247000Y-102892000D01*
X138247000Y-101230000D01*
X140899000Y-101230000D01*
X140899000Y-102892000D01*
G37*
G36*
X142985499Y-100534445D02*
G01*
X143022995Y-100545820D01*
X143057554Y-100564292D01*
X143087847Y-100589153D01*
X143112708Y-100619446D01*
X143131180Y-100654005D01*
X143142555Y-100691501D01*
X143147000Y-100736638D01*
X143147000Y-101475362D01*
X143142555Y-101520499D01*
X143131180Y-101557995D01*
X143112708Y-101592554D01*
X143087847Y-101622847D01*
X143057554Y-101647708D01*
X143022995Y-101666180D01*
X142985499Y-101677555D01*
X142940362Y-101682000D01*
X142301638Y-101682000D01*
X142256501Y-101677555D01*
X142219005Y-101666180D01*
X142184446Y-101647708D01*
X142154153Y-101622847D01*
X142129292Y-101592554D01*
X142110820Y-101557995D01*
X142099445Y-101520499D01*
X142095000Y-101475362D01*
X142095000Y-100736638D01*
X142099445Y-100691501D01*
X142110820Y-100654005D01*
X142129292Y-100619446D01*
X142154153Y-100589153D01*
X142184446Y-100564292D01*
X142219005Y-100545820D01*
X142256501Y-100534445D01*
X142301638Y-100530000D01*
X142940362Y-100530000D01*
X142985499Y-100534445D01*
G37*
G36*
X137397499Y-100252445D02*
G01*
X137434995Y-100263820D01*
X137469554Y-100282292D01*
X137499847Y-100307153D01*
X137524708Y-100337446D01*
X137543180Y-100372005D01*
X137554555Y-100409501D01*
X137559000Y-100454638D01*
X137559000Y-101193362D01*
X137554555Y-101238499D01*
X137543180Y-101275995D01*
X137524708Y-101310554D01*
X137499847Y-101340847D01*
X137469554Y-101365708D01*
X137434995Y-101384180D01*
X137397499Y-101395555D01*
X137352362Y-101400000D01*
X136713638Y-101400000D01*
X136668501Y-101395555D01*
X136631005Y-101384180D01*
X136596446Y-101365708D01*
X136566153Y-101340847D01*
X136541292Y-101310554D01*
X136522820Y-101275995D01*
X136511445Y-101238499D01*
X136507000Y-101193362D01*
X136507000Y-100454638D01*
X136511445Y-100409501D01*
X136522820Y-100372005D01*
X136541292Y-100337446D01*
X136566153Y-100307153D01*
X136596446Y-100282292D01*
X136631005Y-100263820D01*
X136668501Y-100252445D01*
X136713638Y-100248000D01*
X137352362Y-100248000D01*
X137397499Y-100252445D01*
G37*
G36*
X140899000Y-100192000D02*
G01*
X138247000Y-100192000D01*
X138247000Y-98530000D01*
X140899000Y-98530000D01*
X140899000Y-100192000D01*
G37*
G36*
X142985499Y-98855445D02*
G01*
X143022995Y-98866820D01*
X143057554Y-98885292D01*
X143087847Y-98910153D01*
X143112708Y-98940446D01*
X143131180Y-98975005D01*
X143142555Y-99012501D01*
X143147000Y-99057638D01*
X143147000Y-99796362D01*
X143142555Y-99841499D01*
X143131180Y-99878995D01*
X143112708Y-99913554D01*
X143087847Y-99943847D01*
X143057554Y-99968708D01*
X143022995Y-99987180D01*
X142985499Y-99998555D01*
X142940362Y-100003000D01*
X142301638Y-100003000D01*
X142256501Y-99998555D01*
X142219005Y-99987180D01*
X142184446Y-99968708D01*
X142154153Y-99943847D01*
X142129292Y-99913554D01*
X142110820Y-99878995D01*
X142099445Y-99841499D01*
X142095000Y-99796362D01*
X142095000Y-99057638D01*
X142099445Y-99012501D01*
X142110820Y-98975005D01*
X142129292Y-98940446D01*
X142154153Y-98910153D01*
X142184446Y-98885292D01*
X142219005Y-98866820D01*
X142256501Y-98855445D01*
X142301638Y-98851000D01*
X142940362Y-98851000D01*
X142985499Y-98855445D01*
G37*
G36*
X137397499Y-98502445D02*
G01*
X137434995Y-98513820D01*
X137469554Y-98532292D01*
X137499847Y-98557153D01*
X137524708Y-98587446D01*
X137543180Y-98622005D01*
X137554555Y-98659501D01*
X137559000Y-98704638D01*
X137559000Y-99443362D01*
X137554555Y-99488499D01*
X137543180Y-99525995D01*
X137524708Y-99560554D01*
X137499847Y-99590847D01*
X137469554Y-99615708D01*
X137434995Y-99634180D01*
X137397499Y-99645555D01*
X137352362Y-99650000D01*
X136713638Y-99650000D01*
X136668501Y-99645555D01*
X136631005Y-99634180D01*
X136596446Y-99615708D01*
X136566153Y-99590847D01*
X136541292Y-99560554D01*
X136522820Y-99525995D01*
X136511445Y-99488499D01*
X136507000Y-99443362D01*
X136507000Y-98704638D01*
X136511445Y-98659501D01*
X136522820Y-98622005D01*
X136541292Y-98587446D01*
X136566153Y-98557153D01*
X136596446Y-98532292D01*
X136631005Y-98513820D01*
X136668501Y-98502445D01*
X136713638Y-98498000D01*
X137352362Y-98498000D01*
X137397499Y-98502445D01*
G37*
G36*
X136011228Y-96844703D02*
G01*
X136166100Y-96908853D01*
X136305481Y-97001985D01*
X136424015Y-97120519D01*
X136517147Y-97259900D01*
X136581297Y-97414772D01*
X136614000Y-97579184D01*
X136614000Y-97746816D01*
X136581297Y-97911228D01*
X136517147Y-98066100D01*
X136424015Y-98205481D01*
X136305481Y-98324015D01*
X136166100Y-98417147D01*
X136011228Y-98481297D01*
X135846816Y-98514000D01*
X135679184Y-98514000D01*
X135514772Y-98481297D01*
X135359900Y-98417147D01*
X135220519Y-98324015D01*
X135101985Y-98205481D01*
X135008853Y-98066100D01*
X134944703Y-97911228D01*
X134912000Y-97746816D01*
X134912000Y-97579184D01*
X134944703Y-97414772D01*
X135008853Y-97259900D01*
X135101985Y-97120519D01*
X135220519Y-97001985D01*
X135359900Y-96908853D01*
X135514772Y-96844703D01*
X135679184Y-96812000D01*
X135846816Y-96812000D01*
X136011228Y-96844703D01*
G37*
G36*
X142985499Y-97105445D02*
G01*
X143022995Y-97116820D01*
X143057554Y-97135292D01*
X143087847Y-97160153D01*
X143112708Y-97190446D01*
X143131180Y-97225005D01*
X143142555Y-97262501D01*
X143147000Y-97307638D01*
X143147000Y-98046362D01*
X143142555Y-98091499D01*
X143131180Y-98128995D01*
X143112708Y-98163554D01*
X143087847Y-98193847D01*
X143057554Y-98218708D01*
X143022995Y-98237180D01*
X142985499Y-98248555D01*
X142940362Y-98253000D01*
X142301638Y-98253000D01*
X142256501Y-98248555D01*
X142219005Y-98237180D01*
X142184446Y-98218708D01*
X142154153Y-98193847D01*
X142129292Y-98163554D01*
X142110820Y-98128995D01*
X142099445Y-98091499D01*
X142095000Y-98046362D01*
X142095000Y-97307638D01*
X142099445Y-97262501D01*
X142110820Y-97225005D01*
X142129292Y-97190446D01*
X142154153Y-97160153D01*
X142184446Y-97135292D01*
X142219005Y-97116820D01*
X142256501Y-97105445D01*
X142301638Y-97101000D01*
X142940362Y-97101000D01*
X142985499Y-97105445D01*
G37*
G36*
X139620499Y-96887445D02*
G01*
X139657995Y-96898820D01*
X139692554Y-96917292D01*
X139722847Y-96942153D01*
X139747708Y-96972446D01*
X139766180Y-97007005D01*
X139777555Y-97044501D01*
X139782000Y-97089638D01*
X139782000Y-97728362D01*
X139777555Y-97773499D01*
X139766180Y-97810995D01*
X139747708Y-97845554D01*
X139722847Y-97875847D01*
X139692554Y-97900708D01*
X139657995Y-97919180D01*
X139620499Y-97930555D01*
X139575362Y-97935000D01*
X138836638Y-97935000D01*
X138791501Y-97930555D01*
X138754005Y-97919180D01*
X138719446Y-97900708D01*
X138689153Y-97875847D01*
X138664292Y-97845554D01*
X138645820Y-97810995D01*
X138634445Y-97773499D01*
X138630000Y-97728362D01*
X138630000Y-97089638D01*
X138634445Y-97044501D01*
X138645820Y-97007005D01*
X138664292Y-96972446D01*
X138689153Y-96942153D01*
X138719446Y-96917292D01*
X138754005Y-96898820D01*
X138791501Y-96887445D01*
X138836638Y-96883000D01*
X139575362Y-96883000D01*
X139620499Y-96887445D01*
G37*
G36*
X141370499Y-96887445D02*
G01*
X141407995Y-96898820D01*
X141442554Y-96917292D01*
X141472847Y-96942153D01*
X141497708Y-96972446D01*
X141516180Y-97007005D01*
X141527555Y-97044501D01*
X141532000Y-97089638D01*
X141532000Y-97728362D01*
X141527555Y-97773499D01*
X141516180Y-97810995D01*
X141497708Y-97845554D01*
X141472847Y-97875847D01*
X141442554Y-97900708D01*
X141407995Y-97919180D01*
X141370499Y-97930555D01*
X141325362Y-97935000D01*
X140586638Y-97935000D01*
X140541501Y-97930555D01*
X140504005Y-97919180D01*
X140469446Y-97900708D01*
X140439153Y-97875847D01*
X140414292Y-97845554D01*
X140395820Y-97810995D01*
X140384445Y-97773499D01*
X140380000Y-97728362D01*
X140380000Y-97089638D01*
X140384445Y-97044501D01*
X140395820Y-97007005D01*
X140414292Y-96972446D01*
X140439153Y-96942153D01*
X140469446Y-96917292D01*
X140504005Y-96898820D01*
X140541501Y-96887445D01*
X140586638Y-96883000D01*
X141325362Y-96883000D01*
X141370499Y-96887445D01*
G37*
M02*
