G04 #@! TF.GenerationSoftware,KiCad,Pcbnew,(5.1.5)-3*
G04 #@! TF.CreationDate,2020-05-23T18:29:00+09:00*
G04 #@! TF.ProjectId,TLV61220_Breakout,544c5636-3132-4323-905f-427265616b6f,rev?*
G04 #@! TF.SameCoordinates,Original*
G04 #@! TF.FileFunction,Legend,Bot*
G04 #@! TF.FilePolarity,Positive*
%FSLAX46Y46*%
G04 Gerber Fmt 4.6, Leading zero omitted, Abs format (unit mm)*
G04 Created by KiCad (PCBNEW (5.1.5)-3) date 2020-05-23 18:29:00*
%MOMM*%
%LPD*%
G04 APERTURE LIST*
%ADD10C,0.150000*%
%ADD11C,0.120000*%
%ADD12C,0.100000*%
%ADD13C,1.702000*%
G04 APERTURE END LIST*
D10*
X138004476Y-97605857D02*
X137737809Y-97605857D01*
X137623523Y-98024904D02*
X138004476Y-98024904D01*
X138004476Y-97224904D01*
X137623523Y-97224904D01*
X137280666Y-98024904D02*
X137280666Y-97224904D01*
X136823523Y-98024904D01*
X136823523Y-97224904D01*
X142565000Y-99338380D02*
X141993571Y-99338380D01*
X142279285Y-100338380D02*
X142279285Y-99338380D01*
X141184047Y-100338380D02*
X141660238Y-100338380D01*
X141660238Y-99338380D01*
X140993571Y-99338380D02*
X140660238Y-100338380D01*
X140326904Y-99338380D01*
X139565000Y-99338380D02*
X139755476Y-99338380D01*
X139850714Y-99386000D01*
X139898333Y-99433619D01*
X139993571Y-99576476D01*
X140041190Y-99766952D01*
X140041190Y-100147904D01*
X139993571Y-100243142D01*
X139945952Y-100290761D01*
X139850714Y-100338380D01*
X139660238Y-100338380D01*
X139565000Y-100290761D01*
X139517380Y-100243142D01*
X139469761Y-100147904D01*
X139469761Y-99909809D01*
X139517380Y-99814571D01*
X139565000Y-99766952D01*
X139660238Y-99719333D01*
X139850714Y-99719333D01*
X139945952Y-99766952D01*
X139993571Y-99814571D01*
X140041190Y-99909809D01*
X138517380Y-100338380D02*
X139088809Y-100338380D01*
X138803095Y-100338380D02*
X138803095Y-99338380D01*
X138898333Y-99481238D01*
X138993571Y-99576476D01*
X139088809Y-99624095D01*
X138136428Y-99433619D02*
X138088809Y-99386000D01*
X137993571Y-99338380D01*
X137755476Y-99338380D01*
X137660238Y-99386000D01*
X137612619Y-99433619D01*
X137565000Y-99528857D01*
X137565000Y-99624095D01*
X137612619Y-99766952D01*
X138184047Y-100338380D01*
X137565000Y-100338380D01*
X137184047Y-99433619D02*
X137136428Y-99386000D01*
X137041190Y-99338380D01*
X136803095Y-99338380D01*
X136707857Y-99386000D01*
X136660238Y-99433619D01*
X136612619Y-99528857D01*
X136612619Y-99624095D01*
X136660238Y-99766952D01*
X137231666Y-100338380D01*
X136612619Y-100338380D01*
X135993571Y-99338380D02*
X135898333Y-99338380D01*
X135803095Y-99386000D01*
X135755476Y-99433619D01*
X135707857Y-99528857D01*
X135660238Y-99719333D01*
X135660238Y-99957428D01*
X135707857Y-100147904D01*
X135755476Y-100243142D01*
X135803095Y-100290761D01*
X135898333Y-100338380D01*
X135993571Y-100338380D01*
X136088809Y-100290761D01*
X136136428Y-100243142D01*
X136184047Y-100147904D01*
X136231666Y-99957428D01*
X136231666Y-99719333D01*
X136184047Y-99528857D01*
X136136428Y-99433619D01*
X136088809Y-99386000D01*
X135993571Y-99338380D01*
X141779285Y-101464571D02*
X141636428Y-101512190D01*
X141588809Y-101559809D01*
X141541190Y-101655047D01*
X141541190Y-101797904D01*
X141588809Y-101893142D01*
X141636428Y-101940761D01*
X141731666Y-101988380D01*
X142112619Y-101988380D01*
X142112619Y-100988380D01*
X141779285Y-100988380D01*
X141684047Y-101036000D01*
X141636428Y-101083619D01*
X141588809Y-101178857D01*
X141588809Y-101274095D01*
X141636428Y-101369333D01*
X141684047Y-101416952D01*
X141779285Y-101464571D01*
X142112619Y-101464571D01*
X141112619Y-101988380D02*
X141112619Y-101321714D01*
X141112619Y-101512190D02*
X141065000Y-101416952D01*
X141017380Y-101369333D01*
X140922142Y-101321714D01*
X140826904Y-101321714D01*
X140112619Y-101940761D02*
X140207857Y-101988380D01*
X140398333Y-101988380D01*
X140493571Y-101940761D01*
X140541190Y-101845523D01*
X140541190Y-101464571D01*
X140493571Y-101369333D01*
X140398333Y-101321714D01*
X140207857Y-101321714D01*
X140112619Y-101369333D01*
X140065000Y-101464571D01*
X140065000Y-101559809D01*
X140541190Y-101655047D01*
X139207857Y-101988380D02*
X139207857Y-101464571D01*
X139255476Y-101369333D01*
X139350714Y-101321714D01*
X139541190Y-101321714D01*
X139636428Y-101369333D01*
X139207857Y-101940761D02*
X139303095Y-101988380D01*
X139541190Y-101988380D01*
X139636428Y-101940761D01*
X139684047Y-101845523D01*
X139684047Y-101750285D01*
X139636428Y-101655047D01*
X139541190Y-101607428D01*
X139303095Y-101607428D01*
X139207857Y-101559809D01*
X138731666Y-101988380D02*
X138731666Y-100988380D01*
X138636428Y-101607428D02*
X138350714Y-101988380D01*
X138350714Y-101321714D02*
X138731666Y-101702666D01*
X137779285Y-101988380D02*
X137874523Y-101940761D01*
X137922142Y-101893142D01*
X137969761Y-101797904D01*
X137969761Y-101512190D01*
X137922142Y-101416952D01*
X137874523Y-101369333D01*
X137779285Y-101321714D01*
X137636428Y-101321714D01*
X137541190Y-101369333D01*
X137493571Y-101416952D01*
X137445952Y-101512190D01*
X137445952Y-101797904D01*
X137493571Y-101893142D01*
X137541190Y-101940761D01*
X137636428Y-101988380D01*
X137779285Y-101988380D01*
X136588809Y-101321714D02*
X136588809Y-101988380D01*
X137017380Y-101321714D02*
X137017380Y-101845523D01*
X136969761Y-101940761D01*
X136874523Y-101988380D01*
X136731666Y-101988380D01*
X136636428Y-101940761D01*
X136588809Y-101893142D01*
X136255476Y-101321714D02*
X135874523Y-101321714D01*
X136112619Y-100988380D02*
X136112619Y-101845523D01*
X136065000Y-101940761D01*
X135969761Y-101988380D01*
X135874523Y-101988380D01*
D11*
X137017000Y-105856000D02*
X137017000Y-104456000D01*
X136317000Y-103756000D02*
X135717000Y-103756000D01*
X135017000Y-104456000D02*
X135017000Y-105856000D01*
X135717000Y-106556000D02*
X136317000Y-106556000D01*
X136317000Y-106556000D02*
G75*
G03X137017000Y-105856000I0J700000D01*
G01*
X135017000Y-105856000D02*
G75*
G03X135717000Y-106556000I700000J0D01*
G01*
X135717000Y-103756000D02*
G75*
G03X135017000Y-104456000I0J-700000D01*
G01*
X137017000Y-104456000D02*
G75*
G03X136317000Y-103756000I-700000J0D01*
G01*
D10*
X137269380Y-104322666D02*
X137983666Y-104322666D01*
X138126523Y-104275047D01*
X138221761Y-104179809D01*
X138269380Y-104036952D01*
X138269380Y-103941714D01*
X138269380Y-104798857D02*
X137269380Y-104798857D01*
X137269380Y-105179809D01*
X137317000Y-105275047D01*
X137364619Y-105322666D01*
X137459857Y-105370285D01*
X137602714Y-105370285D01*
X137697952Y-105322666D01*
X137745571Y-105275047D01*
X137793190Y-105179809D01*
X137793190Y-104798857D01*
X138269380Y-106322666D02*
X138269380Y-105751238D01*
X138269380Y-106036952D02*
X137269380Y-106036952D01*
X137412238Y-105941714D01*
X137507476Y-105846476D01*
X137555095Y-105751238D01*
%LPC*%
D12*
G36*
X135216980Y-105296050D02*
G01*
X135219882Y-105286483D01*
X135224595Y-105277666D01*
X135230938Y-105269938D01*
X135238666Y-105263595D01*
X135247483Y-105258882D01*
X135257050Y-105255980D01*
X135267000Y-105255000D01*
X136767000Y-105255000D01*
X136776950Y-105255980D01*
X136786517Y-105258882D01*
X136795334Y-105263595D01*
X136803062Y-105269938D01*
X136809405Y-105277666D01*
X136814118Y-105286483D01*
X136817020Y-105296050D01*
X136818000Y-105306000D01*
X136818000Y-105806000D01*
X136817398Y-105812112D01*
X136817398Y-105830534D01*
X136817152Y-105835533D01*
X136812342Y-105884364D01*
X136811608Y-105889314D01*
X136802036Y-105937439D01*
X136800820Y-105942295D01*
X136786576Y-105989250D01*
X136784890Y-105993961D01*
X136766113Y-106039294D01*
X136763973Y-106043820D01*
X136740842Y-106087093D01*
X136738269Y-106091384D01*
X136711009Y-106132183D01*
X136708027Y-106136204D01*
X136676899Y-106174133D01*
X136673538Y-106177841D01*
X136638841Y-106212538D01*
X136635133Y-106215899D01*
X136597204Y-106247027D01*
X136593183Y-106250009D01*
X136552384Y-106277269D01*
X136548093Y-106279842D01*
X136504820Y-106302973D01*
X136500294Y-106305113D01*
X136454961Y-106323890D01*
X136450250Y-106325576D01*
X136403295Y-106339820D01*
X136398439Y-106341036D01*
X136350314Y-106350608D01*
X136345364Y-106351342D01*
X136296533Y-106356152D01*
X136291534Y-106356398D01*
X136273112Y-106356398D01*
X136267000Y-106357000D01*
X135767000Y-106357000D01*
X135760888Y-106356398D01*
X135742466Y-106356398D01*
X135737467Y-106356152D01*
X135688636Y-106351342D01*
X135683686Y-106350608D01*
X135635561Y-106341036D01*
X135630705Y-106339820D01*
X135583750Y-106325576D01*
X135579039Y-106323890D01*
X135533706Y-106305113D01*
X135529180Y-106302973D01*
X135485907Y-106279842D01*
X135481616Y-106277269D01*
X135440817Y-106250009D01*
X135436796Y-106247027D01*
X135398867Y-106215899D01*
X135395159Y-106212538D01*
X135360462Y-106177841D01*
X135357101Y-106174133D01*
X135325973Y-106136204D01*
X135322991Y-106132183D01*
X135295731Y-106091384D01*
X135293158Y-106087093D01*
X135270027Y-106043820D01*
X135267887Y-106039294D01*
X135249110Y-105993961D01*
X135247424Y-105989250D01*
X135233180Y-105942295D01*
X135231964Y-105937439D01*
X135222392Y-105889314D01*
X135221658Y-105884364D01*
X135216848Y-105835533D01*
X135216602Y-105830534D01*
X135216602Y-105812112D01*
X135216000Y-105806000D01*
X135216000Y-105306000D01*
X135216980Y-105296050D01*
G37*
G36*
X135216602Y-104499888D02*
G01*
X135216602Y-104481466D01*
X135216848Y-104476467D01*
X135221658Y-104427636D01*
X135222392Y-104422686D01*
X135231964Y-104374561D01*
X135233180Y-104369705D01*
X135247424Y-104322750D01*
X135249110Y-104318039D01*
X135267887Y-104272706D01*
X135270027Y-104268180D01*
X135293158Y-104224907D01*
X135295731Y-104220616D01*
X135322991Y-104179817D01*
X135325973Y-104175796D01*
X135357101Y-104137867D01*
X135360462Y-104134159D01*
X135395159Y-104099462D01*
X135398867Y-104096101D01*
X135436796Y-104064973D01*
X135440817Y-104061991D01*
X135481616Y-104034731D01*
X135485907Y-104032158D01*
X135529180Y-104009027D01*
X135533706Y-104006887D01*
X135579039Y-103988110D01*
X135583750Y-103986424D01*
X135630705Y-103972180D01*
X135635561Y-103970964D01*
X135683686Y-103961392D01*
X135688636Y-103960658D01*
X135737467Y-103955848D01*
X135742466Y-103955602D01*
X135760888Y-103955602D01*
X135767000Y-103955000D01*
X136267000Y-103955000D01*
X136273112Y-103955602D01*
X136291534Y-103955602D01*
X136296533Y-103955848D01*
X136345364Y-103960658D01*
X136350314Y-103961392D01*
X136398439Y-103970964D01*
X136403295Y-103972180D01*
X136450250Y-103986424D01*
X136454961Y-103988110D01*
X136500294Y-104006887D01*
X136504820Y-104009027D01*
X136548093Y-104032158D01*
X136552384Y-104034731D01*
X136593183Y-104061991D01*
X136597204Y-104064973D01*
X136635133Y-104096101D01*
X136638841Y-104099462D01*
X136673538Y-104134159D01*
X136676899Y-104137867D01*
X136708027Y-104175796D01*
X136711009Y-104179817D01*
X136738269Y-104220616D01*
X136740842Y-104224907D01*
X136763973Y-104268180D01*
X136766113Y-104272706D01*
X136784890Y-104318039D01*
X136786576Y-104322750D01*
X136800820Y-104369705D01*
X136802036Y-104374561D01*
X136811608Y-104422686D01*
X136812342Y-104427636D01*
X136817152Y-104476467D01*
X136817398Y-104481466D01*
X136817398Y-104499888D01*
X136818000Y-104506000D01*
X136818000Y-105006000D01*
X136817020Y-105015950D01*
X136814118Y-105025517D01*
X136809405Y-105034334D01*
X136803062Y-105042062D01*
X136795334Y-105048405D01*
X136786517Y-105053118D01*
X136776950Y-105056020D01*
X136767000Y-105057000D01*
X135267000Y-105057000D01*
X135257050Y-105056020D01*
X135247483Y-105053118D01*
X135238666Y-105048405D01*
X135230938Y-105042062D01*
X135224595Y-105034334D01*
X135219882Y-105025517D01*
X135216980Y-105015950D01*
X135216000Y-105006000D01*
X135216000Y-104506000D01*
X135216602Y-104499888D01*
G37*
D13*
X141605000Y-107950000D03*
X139065000Y-107950000D03*
X136525000Y-107950000D03*
X135763000Y-97663000D03*
M02*
