G04 #@! TF.GenerationSoftware,KiCad,Pcbnew,(5.1.5)-3*
G04 #@! TF.CreationDate,2020-05-23T18:29:00+09:00*
G04 #@! TF.ProjectId,TLV61220_Breakout,544c5636-3132-4323-905f-427265616b6f,rev?*
G04 #@! TF.SameCoordinates,Original*
G04 #@! TF.FileFunction,Soldermask,Bot*
G04 #@! TF.FilePolarity,Negative*
%FSLAX46Y46*%
G04 Gerber Fmt 4.6, Leading zero omitted, Abs format (unit mm)*
G04 Created by KiCad (PCBNEW (5.1.5)-3) date 2020-05-23 18:29:00*
%MOMM*%
%LPD*%
G04 APERTURE LIST*
%ADD10C,0.100000*%
G04 APERTURE END LIST*
D10*
G36*
X141853228Y-107131703D02*
G01*
X142008100Y-107195853D01*
X142147481Y-107288985D01*
X142266015Y-107407519D01*
X142359147Y-107546900D01*
X142423297Y-107701772D01*
X142456000Y-107866184D01*
X142456000Y-108033816D01*
X142423297Y-108198228D01*
X142359147Y-108353100D01*
X142266015Y-108492481D01*
X142147481Y-108611015D01*
X142008100Y-108704147D01*
X141853228Y-108768297D01*
X141688816Y-108801000D01*
X141521184Y-108801000D01*
X141356772Y-108768297D01*
X141201900Y-108704147D01*
X141062519Y-108611015D01*
X140943985Y-108492481D01*
X140850853Y-108353100D01*
X140786703Y-108198228D01*
X140754000Y-108033816D01*
X140754000Y-107866184D01*
X140786703Y-107701772D01*
X140850853Y-107546900D01*
X140943985Y-107407519D01*
X141062519Y-107288985D01*
X141201900Y-107195853D01*
X141356772Y-107131703D01*
X141521184Y-107099000D01*
X141688816Y-107099000D01*
X141853228Y-107131703D01*
G37*
G36*
X139313228Y-107131703D02*
G01*
X139468100Y-107195853D01*
X139607481Y-107288985D01*
X139726015Y-107407519D01*
X139819147Y-107546900D01*
X139883297Y-107701772D01*
X139916000Y-107866184D01*
X139916000Y-108033816D01*
X139883297Y-108198228D01*
X139819147Y-108353100D01*
X139726015Y-108492481D01*
X139607481Y-108611015D01*
X139468100Y-108704147D01*
X139313228Y-108768297D01*
X139148816Y-108801000D01*
X138981184Y-108801000D01*
X138816772Y-108768297D01*
X138661900Y-108704147D01*
X138522519Y-108611015D01*
X138403985Y-108492481D01*
X138310853Y-108353100D01*
X138246703Y-108198228D01*
X138214000Y-108033816D01*
X138214000Y-107866184D01*
X138246703Y-107701772D01*
X138310853Y-107546900D01*
X138403985Y-107407519D01*
X138522519Y-107288985D01*
X138661900Y-107195853D01*
X138816772Y-107131703D01*
X138981184Y-107099000D01*
X139148816Y-107099000D01*
X139313228Y-107131703D01*
G37*
G36*
X136773228Y-107131703D02*
G01*
X136928100Y-107195853D01*
X137067481Y-107288985D01*
X137186015Y-107407519D01*
X137279147Y-107546900D01*
X137343297Y-107701772D01*
X137376000Y-107866184D01*
X137376000Y-108033816D01*
X137343297Y-108198228D01*
X137279147Y-108353100D01*
X137186015Y-108492481D01*
X137067481Y-108611015D01*
X136928100Y-108704147D01*
X136773228Y-108768297D01*
X136608816Y-108801000D01*
X136441184Y-108801000D01*
X136276772Y-108768297D01*
X136121900Y-108704147D01*
X135982519Y-108611015D01*
X135863985Y-108492481D01*
X135770853Y-108353100D01*
X135706703Y-108198228D01*
X135674000Y-108033816D01*
X135674000Y-107866184D01*
X135706703Y-107701772D01*
X135770853Y-107546900D01*
X135863985Y-107407519D01*
X135982519Y-107288985D01*
X136121900Y-107195853D01*
X136276772Y-107131703D01*
X136441184Y-107099000D01*
X136608816Y-107099000D01*
X136773228Y-107131703D01*
G37*
G36*
X136279199Y-103955954D02*
G01*
X136291450Y-103956556D01*
X136309869Y-103956556D01*
X136332149Y-103958750D01*
X136416233Y-103975476D01*
X136437660Y-103981976D01*
X136516858Y-104014780D01*
X136522303Y-104017691D01*
X136522309Y-104017693D01*
X136531169Y-104022429D01*
X136531173Y-104022432D01*
X136536614Y-104025340D01*
X136607899Y-104072971D01*
X136625204Y-104087172D01*
X136685828Y-104147796D01*
X136700029Y-104165101D01*
X136747660Y-104236386D01*
X136750568Y-104241827D01*
X136750571Y-104241831D01*
X136755307Y-104250691D01*
X136755309Y-104250697D01*
X136758220Y-104256142D01*
X136791024Y-104335340D01*
X136797524Y-104356767D01*
X136814250Y-104440851D01*
X136816444Y-104463131D01*
X136816444Y-104481550D01*
X136817046Y-104493801D01*
X136818852Y-104512139D01*
X136818852Y-104999860D01*
X136817263Y-105015999D01*
X136814348Y-105025608D01*
X136809610Y-105034472D01*
X136803237Y-105042237D01*
X136790794Y-105052448D01*
X136780425Y-105059378D01*
X136763098Y-105076705D01*
X136749485Y-105097080D01*
X136740109Y-105119720D01*
X136735329Y-105143753D01*
X136735330Y-105168257D01*
X136740112Y-105192290D01*
X136749490Y-105214929D01*
X136763105Y-105235302D01*
X136780432Y-105252629D01*
X136790802Y-105259558D01*
X136803237Y-105269763D01*
X136809610Y-105277528D01*
X136814348Y-105286392D01*
X136817263Y-105296001D01*
X136818852Y-105312140D01*
X136818852Y-105799862D01*
X136817046Y-105818199D01*
X136816444Y-105830450D01*
X136816444Y-105848869D01*
X136814250Y-105871149D01*
X136797524Y-105955233D01*
X136791024Y-105976660D01*
X136758220Y-106055858D01*
X136755309Y-106061303D01*
X136755307Y-106061309D01*
X136750571Y-106070169D01*
X136750568Y-106070173D01*
X136747660Y-106075614D01*
X136700029Y-106146899D01*
X136685828Y-106164204D01*
X136625204Y-106224828D01*
X136607899Y-106239029D01*
X136536614Y-106286660D01*
X136531173Y-106289568D01*
X136531169Y-106289571D01*
X136522309Y-106294307D01*
X136522303Y-106294309D01*
X136516858Y-106297220D01*
X136437660Y-106330024D01*
X136416233Y-106336524D01*
X136332149Y-106353250D01*
X136309869Y-106355444D01*
X136291450Y-106355444D01*
X136279199Y-106356046D01*
X136260862Y-106357852D01*
X135773138Y-106357852D01*
X135754801Y-106356046D01*
X135742550Y-106355444D01*
X135724131Y-106355444D01*
X135701851Y-106353250D01*
X135617767Y-106336524D01*
X135596340Y-106330024D01*
X135517142Y-106297220D01*
X135511697Y-106294309D01*
X135511691Y-106294307D01*
X135502831Y-106289571D01*
X135502827Y-106289568D01*
X135497386Y-106286660D01*
X135426101Y-106239029D01*
X135408796Y-106224828D01*
X135348172Y-106164204D01*
X135333971Y-106146899D01*
X135286340Y-106075614D01*
X135283432Y-106070173D01*
X135283429Y-106070169D01*
X135278693Y-106061309D01*
X135278691Y-106061303D01*
X135275780Y-106055858D01*
X135242976Y-105976660D01*
X135236476Y-105955233D01*
X135219750Y-105871149D01*
X135217556Y-105848869D01*
X135217556Y-105830450D01*
X135216954Y-105818199D01*
X135215148Y-105799862D01*
X135215148Y-105312140D01*
X135216737Y-105296001D01*
X135219652Y-105286392D01*
X135224390Y-105277528D01*
X135230763Y-105269763D01*
X135243206Y-105259552D01*
X135253575Y-105252622D01*
X135270902Y-105235295D01*
X135284515Y-105214920D01*
X135293891Y-105192280D01*
X135298671Y-105168247D01*
X135298670Y-105143743D01*
X135293888Y-105119710D01*
X135284510Y-105097071D01*
X135270895Y-105076698D01*
X135253568Y-105059371D01*
X135243198Y-105052442D01*
X135230763Y-105042237D01*
X135224390Y-105034472D01*
X135219652Y-105025608D01*
X135216737Y-105015999D01*
X135215148Y-104999860D01*
X135215148Y-104512139D01*
X135216954Y-104493801D01*
X135217556Y-104481550D01*
X135217556Y-104463131D01*
X135219750Y-104440851D01*
X135236476Y-104356767D01*
X135242976Y-104335340D01*
X135275780Y-104256142D01*
X135278691Y-104250697D01*
X135278693Y-104250691D01*
X135283429Y-104241831D01*
X135283432Y-104241827D01*
X135286340Y-104236386D01*
X135333971Y-104165101D01*
X135348172Y-104147796D01*
X135408796Y-104087172D01*
X135426101Y-104072971D01*
X135497386Y-104025340D01*
X135502827Y-104022432D01*
X135502831Y-104022429D01*
X135511691Y-104017693D01*
X135511697Y-104017691D01*
X135517142Y-104014780D01*
X135596340Y-103981976D01*
X135617767Y-103975476D01*
X135701851Y-103958750D01*
X135724131Y-103956556D01*
X135742550Y-103956556D01*
X135754801Y-103955954D01*
X135773139Y-103954148D01*
X136260861Y-103954148D01*
X136279199Y-103955954D01*
G37*
G36*
X136011228Y-96844703D02*
G01*
X136166100Y-96908853D01*
X136305481Y-97001985D01*
X136424015Y-97120519D01*
X136517147Y-97259900D01*
X136581297Y-97414772D01*
X136614000Y-97579184D01*
X136614000Y-97746816D01*
X136581297Y-97911228D01*
X136517147Y-98066100D01*
X136424015Y-98205481D01*
X136305481Y-98324015D01*
X136166100Y-98417147D01*
X136011228Y-98481297D01*
X135846816Y-98514000D01*
X135679184Y-98514000D01*
X135514772Y-98481297D01*
X135359900Y-98417147D01*
X135220519Y-98324015D01*
X135101985Y-98205481D01*
X135008853Y-98066100D01*
X134944703Y-97911228D01*
X134912000Y-97746816D01*
X134912000Y-97579184D01*
X134944703Y-97414772D01*
X135008853Y-97259900D01*
X135101985Y-97120519D01*
X135220519Y-97001985D01*
X135359900Y-96908853D01*
X135514772Y-96844703D01*
X135679184Y-96812000D01*
X135846816Y-96812000D01*
X136011228Y-96844703D01*
G37*
M02*
